<svg xmlns="http://www.w3.org/2000/svg" width="745.98" height="121.8" viewBox="0 0 745.98 121.8"><title>logo_pandaroo</title><rect x="-125.01" y="-438.1" width="1001" height="1000" style="fill:none"/><path d="M228,32A31.56,31.56,0,0,1,240,44a33.82,33.82,0,0,1,4.32,17,35.82,35.82,0,0,1-4,17,30.31,30.31,0,0,1-11,11.94,29.93,29.93,0,0,1-38.82-6.6v32.4a6.24,6.24,0,0,1-10.5,4.44,5.89,5.89,0,0,1-1.74-4.44V61a33.46,33.46,0,0,1,4.38-17A32.37,32.37,0,0,1,211.15,27.6,33.23,33.23,0,0,1,228,32Zm-6,48.48a21.2,21.2,0,0,0,7.68-8A23.28,23.28,0,0,0,232.51,61a23.62,23.62,0,0,0-2.82-11.52,21.09,21.09,0,0,0-7.68-8.1,20.89,20.89,0,0,0-29.34,8.1A24,24,0,0,0,189.91,61a23.69,23.69,0,0,0,2.76,11.46,21.19,21.19,0,0,0,29.34,8Z" style="fill:#ff472e"/><path d="M303,32a32.41,32.41,0,0,1,11.88,12,33.46,33.46,0,0,1,4.38,17V87.72a6.13,6.13,0,1,1-12.25,0V83.28a30.2,30.2,0,0,1-38.81,6.6,30.17,30.17,0,0,1-11-11.94,35.71,35.71,0,0,1-4-17,33.83,33.83,0,0,1,4.33-17,31.49,31.49,0,0,1,11.94-12,33.17,33.17,0,0,1,16.86-4.38A32.63,32.63,0,0,1,303,32Zm-5.88,48.48a20.83,20.83,0,0,0,7.62-8A23.8,23.8,0,0,0,307.51,61a24.15,24.15,0,0,0-2.76-11.52,21.16,21.16,0,0,0-29.34-8.1,21,21,0,0,0-7.68,8.1A23.51,23.51,0,0,0,264.91,61a23.17,23.17,0,0,0,2.82,11.46,21.13,21.13,0,0,0,7.68,8,21.53,21.53,0,0,0,21.72,0Z" style="fill:#ff472e"/><path d="M379,31.08a25.36,25.36,0,0,1,10.32,10.5q3.72,6.9,3.72,16.62V87.72a6.12,6.12,0,1,1-12.24,0V58.2q0-9.72-5.22-14.7t-13.86-5a20.48,20.48,0,0,0-9.18,2,16.28,16.28,0,0,0-6.48,5.52,13.67,13.67,0,0,0-2.34,7.8V87.72a6.05,6.05,0,0,1-1.68,4.38,6.15,6.15,0,0,1-10.56-4.38V34.2a5.89,5.89,0,0,1,1.74-4.44,6.09,6.09,0,0,1,10.5,4.44v1.32a26.67,26.67,0,0,1,9.12-5.94,30.24,30.24,0,0,1,11.28-2.1A30.56,30.56,0,0,1,379,31.08Z" style="fill:#ff472e"/><path d="M468.42,1.68a6,6,0,0,1,1.68,4.44V60.84a33.46,33.46,0,0,1-4.38,17A32.37,32.37,0,0,1,437.1,94.2a33.23,33.23,0,0,1-16.86-4.38,31.56,31.56,0,0,1-11.94-12,33.82,33.82,0,0,1-4.32-17,35.82,35.82,0,0,1,4-17,30.31,30.31,0,0,1,11-11.94,29.93,29.93,0,0,1,38.82,6.6V6.12a5.89,5.89,0,0,1,1.74-4.44,6.63,6.63,0,0,1,8.82,0ZM448,80.46a20.65,20.65,0,0,0,7.62-8.1,24,24,0,0,0,2.76-11.52,23.69,23.69,0,0,0-2.76-11.46,21.19,21.19,0,0,0-29.34-8,21.2,21.2,0,0,0-7.68,8,23.28,23.28,0,0,0-2.82,11.46,23.62,23.62,0,0,0,2.82,11.52,21.09,21.09,0,0,0,7.68,8.1,21.53,21.53,0,0,0,21.72,0Z" style="fill:#ff472e"/><path d="M532.2,32a32.27,32.27,0,0,1,11.88,12,33.46,33.46,0,0,1,4.38,17V87.72a6.12,6.12,0,1,1-12.24,0V83.28a30.21,30.21,0,0,1-38.82,6.6,30.31,30.31,0,0,1-11-11.94,35.82,35.82,0,0,1-4-17,33.82,33.82,0,0,1,4.32-17A31.56,31.56,0,0,1,498.6,32a33.23,33.23,0,0,1,16.86-4.38A32.58,32.58,0,0,1,532.2,32Zm-5.88,48.48a20.76,20.76,0,0,0,7.62-8A23.69,23.69,0,0,0,536.7,61a24,24,0,0,0-2.76-11.52,21.16,21.16,0,0,0-29.34-8.1,21.09,21.09,0,0,0-7.68,8.1A23.62,23.62,0,0,0,494.1,61a23.28,23.28,0,0,0,2.82,11.46,21.2,21.2,0,0,0,7.68,8,21.53,21.53,0,0,0,21.72,0Z" style="fill:#ff472e"/><path d="M602.82,29.28q3.6,1.92,3.6,4.8a4.21,4.21,0,0,1-.12,1.2q-1.08,3.84-4.8,3.84a10.11,10.11,0,0,1-1.8-.24,47.3,47.3,0,0,0-7.8-.84q-8.64,0-13.92,4a12.66,12.66,0,0,0-5.28,10.68v35a6.15,6.15,0,0,1-1.5,4.44,6,6,0,0,1-4.5,1.56,6.15,6.15,0,0,1-4.44-1.5,6,6,0,0,1-1.56-4.5V34.08a6,6,0,0,1,1.56-4.44,6,6,0,0,1,4.44-1.56q6,0,6,6v2.28a25.32,25.32,0,0,1,8.88-6.6,26.94,26.94,0,0,1,11.28-2.4Q599.22,27.36,602.82,29.28Z" style="fill:#ff472e"/><path d="M620.82,89.94a30.11,30.11,0,0,1-11.76-11.82A34.73,34.73,0,0,1,604.86,61a35,35,0,0,1,4.2-17.28,30.11,30.11,0,0,1,11.76-11.82A34.34,34.34,0,0,1,638,27.6a33.77,33.77,0,0,1,17,4.26,30.64,30.64,0,0,1,11.76,11.82A34.59,34.59,0,0,1,671,61a34.73,34.73,0,0,1-4.2,17.16,30.22,30.22,0,0,1-11.7,11.82,36.57,36.57,0,0,1-34.26,0ZM649,80.52a19.91,19.91,0,0,0,7.56-8A24.37,24.37,0,0,0,659.22,61a24.73,24.73,0,0,0-2.7-11.64,19.81,19.81,0,0,0-7.56-8,22.37,22.37,0,0,0-22,0,20.22,20.22,0,0,0-7.62,8A24.29,24.29,0,0,0,616.62,61a23.94,23.94,0,0,0,2.76,11.58,20.33,20.33,0,0,0,7.62,8,22.37,22.37,0,0,0,22,0Z" style="fill:#ff472e"/><path d="M695.82,89.94a30.11,30.11,0,0,1-11.76-11.82A34.73,34.73,0,0,1,679.86,61a35,35,0,0,1,4.2-17.28,30.11,30.11,0,0,1,11.76-11.82A34.34,34.34,0,0,1,713,27.6a33.77,33.77,0,0,1,17,4.26,30.64,30.64,0,0,1,11.76,11.82A34.59,34.59,0,0,1,746,61a34.73,34.73,0,0,1-4.2,17.16,30.22,30.22,0,0,1-11.7,11.82,36.57,36.57,0,0,1-34.26,0ZM724,80.52a19.91,19.91,0,0,0,7.56-8A24.37,24.37,0,0,0,734.22,61a24.73,24.73,0,0,0-2.7-11.64,19.81,19.81,0,0,0-7.56-8,22.37,22.37,0,0,0-22,0,20.22,20.22,0,0,0-7.62,8A24.29,24.29,0,0,0,691.62,61a23.94,23.94,0,0,0,2.76,11.58,20.33,20.33,0,0,0,7.62,8,22.37,22.37,0,0,0,22,0Z" style="fill:#ff472e"/><path d="M8,91.38A62.72,62.72,0,0,1,1,86a3.34,3.34,0,0,1-1-3A64.13,64.13,0,0,1,4,63.06a6.22,6.22,0,0,0,0-4.59A65.72,65.72,0,0,1,3.73,14c.83-2.44,1.48-2.81,4.08-2.51A64.36,64.36,0,0,1,38.17,23.11a4.23,4.23,0,0,0,4.4.57,65.39,65.39,0,0,1,47.37,0,4.11,4.11,0,0,0,4.26-.46,64.52,64.52,0,0,1,30.68-11.75c2.32-.26,3.1.16,3.85,2.36a65.9,65.9,0,0,1-.16,44.46,6.69,6.69,0,0,0,0,4.94,65.78,65.78,0,0,1,3.86,19.55,4.05,4.05,0,0,1-1.67,3.81,69.09,69.09,0,0,1-6.26,4.79,17.68,17.68,0,0,0,.41-10.31,16.29,16.29,0,0,0-13.8-11.81c-3.18-.42-3.24-.47-3.85-3.37A16.54,16.54,0,0,0,90.78,52.46c-7.83.07-14.42,5.78-16,13.85-.43,2.19-1,2.68-3.18,2.69-3.31,0-6.62,0-9.93,0-3.1,0-3.39-.24-4-3.23a16.47,16.47,0,0,0-32.32-.07c-.68,3.08-.77,3.18-3.91,3.56a15.33,15.33,0,0,0-9.16,4.23C7.05,78.56,5.89,84.58,8,91.38Z" style="fill:#ff472e"/><path d="M8,91.38c-2.1-6.8-.94-12.82,4.23-17.88a15.33,15.33,0,0,1,9.16-4.23c3.14-.38,3.23-.48,3.91-3.56a16.47,16.47,0,0,1,32.32.07c.66,3,1,3.23,4,3.23,3.31,0,6.62,0,9.93,0,2.2,0,2.75-.5,3.18-2.69,1.59-8.07,8.18-13.78,16-13.85a16.54,16.54,0,0,1,16.51,13.43c.61,2.9.67,3,3.85,3.37a16.29,16.29,0,0,1,13.8,11.81,17.68,17.68,0,0,1-.41,10.31,79.52,79.52,0,0,1-19.6,11c.95-2.2,2.54-4,3.78-6a16.61,16.61,0,0,0-2.32-20.45q-2.83-2.88-5.72-5.71a4.75,4.75,0,0,1-1.4-2.68,8.24,8.24,0,0,0-13.35-5,8.87,8.87,0,0,0-3.15,6c-.32,2.3.86,3.63,2.47,4.9a9.72,9.72,0,0,1,1.9,2.23c2.48,3.64,5,7.28,7.34,11a15.1,15.1,0,0,1,1.8,12.67c-.81,3-2.76,5.23-4.67,7.51v0c-.36-.11-.54.1-.68.39A76.51,76.51,0,0,1,74.57,110a98.17,98.17,0,0,1-31.81-2.47c-.41-.1-.8-.26-1.21-.4-.14-.26-.3-.5-.66-.38l0,0a2.89,2.89,0,0,0-.33-.6c-6-6.4-6.62-13.49-1.74-20.83,1.66-2.49,3.35-5,5-7.47a21.09,21.09,0,0,1,5-5.85,2.29,2.29,0,0,0,.92-1.53,8.64,8.64,0,0,0-6.52-9.69,8.21,8.21,0,0,0-9.88,6.51,5.51,5.51,0,0,1-1.7,3.12C29.8,72.22,28,74,26.27,75.79a16.65,16.65,0,0,0-2.21,21c1.23,1.94,2.88,3.63,3.61,5.89A109.62,109.62,0,0,1,9.41,92.5C8.92,92.15,8.46,91.75,8,91.38ZM66.33,77.23c-.91,0-1.83,0-2.75,0a5.7,5.7,0,0,0-5.59,6c.07,3.62,4.75,8.17,8.38,8.13,3.35,0,7.93-4.43,8.15-7.8a5.73,5.73,0,0,0-5.8-6.35C67.93,77.21,67.13,77.23,66.33,77.23Z" style="fill:#ffccca"/><path d="M27.67,102.72c-.73-2.26-2.38-4-3.61-5.89a16.65,16.65,0,0,1,2.21-21C28,74,29.8,72.22,31.6,70.47a5.51,5.51,0,0,0,1.7-3.12,8.21,8.21,0,0,1,9.88-6.51,8.64,8.64,0,0,1,6.52,9.69,2.29,2.29,0,0,1-.92,1.53,21.09,21.09,0,0,0-5,5.85c-1.64,2.5-3.33,5-5,7.47-4.88,7.34-4.29,14.43,1.74,20.83a2.89,2.89,0,0,1,.33.6c-1.94.17-3.63-.76-5.39-1.3C32.87,104.68,30.28,103.66,27.67,102.72Z" style="fill:none"/><path d="M91.61,106.81c1.91-2.28,3.86-4.53,4.67-7.51a15.1,15.1,0,0,0-1.8-12.67c-2.37-3.71-4.86-7.35-7.34-11a9.72,9.72,0,0,0-1.9-2.23c-1.61-1.27-2.79-2.6-2.47-4.9a8.87,8.87,0,0,1,3.15-6,8.24,8.24,0,0,1,13.35,5,4.75,4.75,0,0,0,1.4,2.68q2.88,2.83,5.72,5.71a16.61,16.61,0,0,1,2.32,20.45c-1.24,2-2.83,3.82-3.78,6A46.77,46.77,0,0,1,91.61,106.81Z" style="fill:none"/><path d="M40.89,106.79c.36-.12.52.12.66.38C41.27,107.16,40.88,107.32,40.89,106.79Z" style="fill:#ec2211"/><path d="M90.94,107.18c.14-.29.32-.5.68-.39C91.62,107.32,91.23,107.16,90.94,107.18Z" style="fill:#ec2211"/><path d="M66.33,77.23c.8,0,1.6,0,2.39,0a5.73,5.73,0,0,1,5.8,6.35c-.22,3.37-4.8,7.76-8.15,7.8-3.63,0-8.31-4.51-8.38-8.13a5.7,5.7,0,0,1,5.59-6C64.5,77.19,65.42,77.23,66.33,77.23Z" style="fill:none"/></svg>